<?xml version="1.0" encoding="UTF-8" standalone="no"?>
<svg
   xmlns:dc="http://purl.org/dc/elements/1.1/"
   xmlns:cc="http://creativecommons.org/ns#"
   xmlns:rdf="http://www.w3.org/1999/02/22-rdf-syntax-ns#"
   xmlns:svg="http://www.w3.org/2000/svg"
   xmlns="http://www.w3.org/2000/svg"
   style="font-style:italic;font-size:12px;font-family:MyriadPro, serif"
   xml:space="preserve"
   font-size="12"
   font-style="italic"
   enable-background="new 0 0 300 300"
   viewBox="0 0 226.771 226.771"
   height="226.771"
   width="226.771"
   y="0px"
   x="0px"
   id="Layer_1"
   version="1.1"><metadata
     id="metadata4262"><rdf:RDF><cc:Work
         rdf:about=""><dc:format>image/svg+xml</dc:format><dc:type
           rdf:resource="http://purl.org/dc/dcmitype/StillImage" /><dc:title></dc:title></cc:Work></rdf:RDF></metadata><defs
     id="defs4260" /><g
     transform="translate(-34.016,-33.543)"
     id="g4224"><g
       style="fill:#ffffff;fill-opacity:1"
       id="g4226"><path
         style="fill:#ffffff;fill-opacity:1"
         id="path4228"
         d="m 147.402,33.543 c -62.622,0 -113.386,50.764 -113.386,113.386 0,62.622 50.764,113.385 113.386,113.385 62.621,0 113.385,-50.764 113.385,-113.385 0,-62.621 -50.765,-113.386 -113.385,-113.386 z M 147.4,222.52 c -41.747,0 -75.59,-33.842 -75.59,-75.59 0,-41.747 33.843,-75.59 75.59,-75.59 41.747,0 75.591,33.843 75.591,75.59 0,41.748 -33.844,75.59 -75.591,75.59 z" /></g><g
       id="g4230"><path
         style="fill:none;fill-opacity:1;stroke:none"
         id="path4232"
         d="m 147.402,33.543 c -62.622,0 -113.386,50.764 -113.386,113.386 0,62.622 50.764,113.385 113.386,113.385 62.621,0 113.385,-50.764 113.385,-113.385 0,-62.621 -50.765,-113.386 -113.385,-113.386 z M 147.4,222.52 c -41.747,0 -75.59,-33.842 -75.59,-75.59 0,-41.747 33.843,-75.59 75.59,-75.59 41.747,0 75.591,33.843 75.591,75.59 0,41.748 -33.844,75.59 -75.591,75.59 z" /></g></g></svg>